<svg viewBox="0 0 96 96" xmlns="http://www.w3.org/2000/svg" xmlns:xlink="http://www.w3.org/1999/xlink" id="Icons_AlienFace" overflow="hidden"><path d="M48.936 13.014C32.3754 12.5004 18.534 25.509 18.0204 42.0696 18.0108 42.3796 18.006 42.6898 18.006 43 18.006 63.948 39.07 79.28 45.897 83.7 47.1903 84.5369 48.8506 84.5521 50.159 83.739 56.768 79.652 76.415 65.858 77.915 45.475 79.163 28.51 65.939 13.528 48.936 13.014ZM26.006 45.651 26.006 40 32.657 40C38.3699 40.0066 42.9994 44.6361 43.006 50.349L43.006 56 36.355 56C30.6421 55.9934 26.0126 51.3639 26.006 45.651ZM51.006 72 45.006 72C43.9014 72 43.006 71.1046 43.006 70 43.006 68.8954 43.9014 68 45.006 68L51.006 68C52.1106 68 53.006 68.8954 53.006 70 53.006 71.1046 52.1106 72 51.006 72ZM70.006 45.651C69.9994 51.3639 65.3699 55.9934 59.657 56L53.006 56 53.006 50.349C53.0126 44.6361 57.6421 40.0066 63.355 40L70.006 40Z" fill="#FFFFFF"/></svg>